<svg xmlns="http://www.w3.org/2000/svg" xmlns:xlink="http://www.w3.org/1999/xlink" width="1000" zoomAndPan="magnify" viewBox="0 0 750 225" height="300" preserveAspectRatio="xMidYMid meet" version="1.0"><defs><g/></defs><g fill="#f59e0b" fill-opacity="1"><g transform="translate(4.99315, 168.92277)"><g><path d="M 89.890625 -110.890625 L 138.609375 -110.890625 L 97.65625 -66.15625 L 139.65625 0 L 92.203125 0 L 68.890625 -38.015625 L 54.390625 -23.9375 L 54.390625 0 L 12.59375 0 L 12.59375 -152.46875 L 54.390625 -152.46875 L 54.390625 -68.46875 Z M 89.890625 -110.890625 "/></g></g></g><g fill="#f59e0b" fill-opacity="1"><g transform="translate(133.104548, 168.92277)"><g><path d="M 69.9375 -113.40625 C 90.238281 -113.40625 105.742188 -108.644531 116.453125 -99.125 C 127.160156 -89.601562 132.515625 -75.039062 132.515625 -55.4375 L 132.515625 -48.296875 L 49.359375 -48.296875 C 49.359375 -40.316406 51.140625 -34.296875 54.703125 -30.234375 C 58.273438 -26.179688 63.910156 -24.15625 71.609375 -24.15625 C 78.609375 -24.15625 83.753906 -25.625 87.046875 -28.5625 C 90.335938 -31.5 91.984375 -35.421875 91.984375 -40.328125 L 132.515625 -40.328125 C 132.515625 -26.878906 127.40625 -16.375 117.1875 -8.8125 C 106.96875 -1.257812 92.054688 2.515625 72.453125 2.515625 C 51.867188 2.515625 35.90625 -2.273438 24.5625 -11.859375 C 13.226562 -21.453125 7.5625 -35.976562 7.5625 -55.4375 C 7.5625 -74.476562 13.09375 -88.898438 24.15625 -98.703125 C 35.21875 -108.503906 50.476562 -113.40625 69.9375 -113.40625 Z M 71.609375 -86.734375 C 58.453125 -86.734375 51.101562 -80.503906 49.5625 -68.046875 L 90.3125 -68.046875 C 90.3125 -73.785156 88.664062 -78.332031 85.375 -81.6875 C 82.082031 -85.050781 77.492188 -86.734375 71.609375 -86.734375 Z M 71.609375 -86.734375 "/></g></g></g><g fill="#f59e0b" fill-opacity="1"><g transform="translate(261.215945, 168.92277)"><g><path d="M 85.6875 -113.40625 C 100.664062 -113.40625 112.210938 -108.503906 120.328125 -98.703125 C 128.453125 -88.898438 132.515625 -74.410156 132.515625 -55.234375 C 132.515625 -36.191406 128.453125 -21.804688 120.328125 -12.078125 C 112.210938 -2.347656 100.664062 2.515625 85.6875 2.515625 C 72.800781 2.515625 62.441406 -1.679688 54.609375 -10.078125 L 54.609375 41.375 L 12.8125 41.375 L 12.8125 -110.890625 L 46.828125 -110.890625 L 50.40625 -95.140625 C 58.519531 -107.316406 70.28125 -113.40625 85.6875 -113.40625 Z M 72.671875 -82.53125 C 66.503906 -82.53125 61.878906 -80.359375 58.796875 -76.015625 C 55.722656 -71.679688 54.1875 -66.015625 54.1875 -59.015625 L 54.1875 -52.078125 C 54.1875 -45.078125 55.722656 -39.375 58.796875 -34.96875 C 61.878906 -30.5625 66.503906 -28.359375 72.671875 -28.359375 C 84.710938 -28.359375 90.734375 -35.566406 90.734375 -49.984375 L 90.734375 -61.109375 C 90.734375 -75.390625 84.710938 -82.53125 72.671875 -82.53125 Z M 72.671875 -82.53125 "/></g></g></g><g fill="#f59e0b" fill-opacity="1"><g transform="translate(389.327342, 168.92277)"><g><path d="M 85.6875 -113.40625 C 100.664062 -113.40625 112.210938 -108.503906 120.328125 -98.703125 C 128.453125 -88.898438 132.515625 -74.410156 132.515625 -55.234375 C 132.515625 -36.191406 128.453125 -21.804688 120.328125 -12.078125 C 112.210938 -2.347656 100.664062 2.515625 85.6875 2.515625 C 72.800781 2.515625 62.441406 -1.679688 54.609375 -10.078125 L 54.609375 41.375 L 12.8125 41.375 L 12.8125 -110.890625 L 46.828125 -110.890625 L 50.40625 -95.140625 C 58.519531 -107.316406 70.28125 -113.40625 85.6875 -113.40625 Z M 72.671875 -82.53125 C 66.503906 -82.53125 61.878906 -80.359375 58.796875 -76.015625 C 55.722656 -71.679688 54.1875 -66.015625 54.1875 -59.015625 L 54.1875 -52.078125 C 54.1875 -45.078125 55.722656 -39.375 58.796875 -34.96875 C 61.878906 -30.5625 66.503906 -28.359375 72.671875 -28.359375 C 84.710938 -28.359375 90.734375 -35.566406 90.734375 -49.984375 L 90.734375 -61.109375 C 90.734375 -75.390625 84.710938 -82.53125 72.671875 -82.53125 Z M 72.671875 -82.53125 "/></g></g></g><g fill="#f59e0b" fill-opacity="1"><g transform="translate(517.43874, 168.92277)"><g><path d="M 69.9375 -113.40625 C 89.394531 -113.40625 104.6875 -108.46875 115.8125 -98.59375 C 126.945312 -88.726562 132.515625 -74.34375 132.515625 -55.4375 C 132.515625 -36.539062 126.945312 -22.15625 115.8125 -12.28125 C 104.6875 -2.414062 89.394531 2.515625 69.9375 2.515625 C 50.476562 2.515625 35.21875 -2.378906 24.15625 -12.171875 C 13.09375 -21.972656 7.5625 -36.394531 7.5625 -55.4375 C 7.5625 -74.476562 13.09375 -88.898438 24.15625 -98.703125 C 35.21875 -108.503906 50.476562 -113.40625 69.9375 -113.40625 Z M 69.9375 -85.0625 C 56.21875 -85.0625 49.359375 -77.148438 49.359375 -61.328125 L 49.359375 -49.359375 C 49.359375 -33.671875 56.21875 -25.828125 69.9375 -25.828125 C 83.800781 -25.828125 90.734375 -33.671875 90.734375 -49.359375 L 90.734375 -61.328125 C 90.734375 -77.148438 83.800781 -85.0625 69.9375 -85.0625 Z M 69.9375 -85.0625 "/></g></g></g><g fill="#f59e0b" fill-opacity="1"><g transform="translate(645.550137, 168.92277)"><g><path d="M 80.015625 -113.625 C 83.234375 -113.625 86.101562 -113.238281 88.625 -112.46875 C 91.144531 -111.695312 92.40625 -111.238281 92.40625 -111.09375 L 92.40625 -76.03125 L 78.96875 -76.03125 C 70.28125 -76.03125 64.007812 -73.785156 60.15625 -69.296875 C 56.3125 -64.816406 54.390625 -58.171875 54.390625 -49.359375 L 54.390625 0 L 12.59375 0 L 12.59375 -110.890625 L 46.828125 -110.890625 L 49.5625 -94.09375 C 52.082031 -100.53125 56.070312 -105.394531 61.53125 -108.6875 C 66.988281 -111.976562 73.148438 -113.625 80.015625 -113.625 Z M 80.015625 -113.625 "/></g></g></g></svg>